<?xml version="1.0" encoding="utf-8"?>
<!-- Generator: Adobe Illustrator 25.2.0, SVG Export Plug-In . SVG Version: 6.00 Build 0)  -->
<svg version="1.1" id="Layer_1" xmlns="http://www.w3.org/2000/svg" xmlns:xlink="http://www.w3.org/1999/xlink" x="0px" y="0px"
	 viewBox="0 0 1711.2 462.1" style="enable-background:new 0 0 1711.2 462.1;" xml:space="preserve">
<style type="text/css">
	.st0{fill:#000046;}
	.st1{fill:#FF7A12;}
	.st2{fill:#FFFFFF;}
</style>
<g>
	<path class="st0" d="M593.8,189.9h31.5l30.7,75.8l30.4-75.8h31.4v109.6h-26.7v-65.7l-24.5,65.7h-21.5l-24.7-65.9v65.9h-26.7V189.9z
		"/>
	<path class="st0" d="M728.6,189.9h30.3l21.2,45.9l21.1-45.9h30l-37.9,73.4v36.2h-26.7v-36.2L728.6,189.9z"/>
	<path class="st1" d="M944.1,224.6h-29.5c-4.1-7.3-11.5-11.2-21.5-11.2c-17.2,0-28.6,12.2-28.6,31.2c0,20.3,11.5,32.1,30.7,32.1
		c13.3,0,22.5-7,26.5-19.4h-33.9v-19.7H946v24.8c-5.6,18.9-23.9,37.8-52.8,37.8c-32.8,0-55.9-22.9-55.9-55.7
		c0-32.8,22.9-55.9,55.7-55.9C919.3,188.7,938.3,202.1,944.1,224.6z"/>
	<path class="st1" d="M1029,280.1h-40.9l-6.6,19.4h-27.9l39.6-109.6h30.9l39.6,109.6h-28.2L1029,280.1z M1008.6,219.4l-13.4,40.1h27
		L1008.6,219.4z"/>
	<path class="st1" d="M1075.9,189.9h31.5l30.7,75.8l30.4-75.8h31.4v109.6h-26.7v-65.7l-24.5,65.7h-21.5l-24.7-65.9v65.9h-26.7V189.9
		z"/>
	<path class="st1" d="M1286.3,211.3h-40.4v22.2h35.7v20.6h-35.7v24h40.4v21.4h-67.1V189.9h67.1V211.3z"/>
	<path class="st0" d="M1330.3,189.9v89h35v20.6h-61.6V189.9H1330.3z"/>
	<path class="st0" d="M1378.1,189.9h26.7v109.6h-26.7V189.9z"/>
	<path class="st0" d="M1463.8,300.6c-23.6,0-42-11.7-42.8-33.9h28.4c0.8,8.4,6.1,12.5,13.6,12.5c7.8,0,12.8-3.9,12.8-10.3
		c0-20.3-54.8-9.4-54.5-48.2c0-20.8,17-32.3,40-32.3c23.9,0,40,11.9,41,32.8h-28.9c-0.5-7-5.5-11.2-12.6-11.4
		c-6.4-0.2-11.2,3.1-11.2,10c0,19,54.2,10.5,54.2,47.1C1503.7,285.3,1489.4,300.6,1463.8,300.6z"/>
	<path class="st0" d="M1514.2,189.9h84.7v21.4h-29v88.2h-26.7v-88.2h-29V189.9z"/>
</g>
<rect x="305.5" y="623.6" style="fill:none;" width="238.6" height="28.1"/>
<text transform="matrix(1 0 0 1 305.4699 650.5496)"><tspan x="0" y="0" class="st0" style="font-family:'Poppins-Bold'; font-size:36.4303px;">MY</tspan><tspan x="57.9" y="0" class="st1" style="font-family:'Poppins-Bold'; font-size:36.4303px;">GAME</tspan><tspan x="165.6" y="0" class="st0" style="font-family:'Poppins-Bold'; font-size:36.4303px;">LIST</tspan></text>
<g>
	<circle class="st0" cx="-410" cy="394.6" r="70.8"/>
	<circle class="st0" cx="-410" cy="402.1" r="69"/>
	<circle class="st0" cx="-410" cy="409.7" r="67.1"/>
	<circle class="st0" cx="-410" cy="417.2" r="65.3"/>
	<circle class="st0" cx="-410" cy="424.8" r="63.4"/>
	<circle class="st0" cx="-410" cy="432.3" r="61.6"/>
	<circle class="st0" cx="-410" cy="439.9" r="59.7"/>
	<circle class="st0" cx="-410" cy="447.4" r="57.9"/>
	<circle class="st0" cx="-410" cy="455" r="56"/>
	<circle class="st0" cx="-410" cy="462.5" r="54.2"/>
	<circle class="st0" cx="-410" cy="470.1" r="52.3"/>
	<circle class="st0" cx="-410" cy="477.6" r="50.5"/>
	<circle class="st0" cx="-410" cy="485.2" r="48.7"/>
	<circle class="st0" cx="-410" cy="492.7" r="46.8"/>
	<circle class="st0" cx="-410" cy="500.3" r="45"/>
	<circle class="st0" cx="-410" cy="507.8" r="43.1"/>
	<circle class="st0" cx="-410" cy="515.3" r="41.3"/>
	<circle class="st0" cx="-410" cy="522.9" r="39.4"/>
	<circle class="st0" cx="-410" cy="530.4" r="37.6"/>
	<circle class="st0" cx="-410" cy="538" r="35.7"/>
	<circle class="st0" cx="-410" cy="545.5" r="33.9"/>
	<circle class="st0" cx="-410" cy="553.1" r="32"/>
</g>
<rect x="-111.3" y="-305.2" class="st0" width="219.6" height="219.6"/>
<rect x="127.4" y="-305.2" class="st1" width="219.6" height="219.6"/>
<g>
	<path class="st0" d="M235.4,297.9c-24.6,30.2-49.6,60.9-50.6,61.8c-10.7,12.9-27.5,19.8-43.2,12.5c-15.7-7.3-20.7-25.8-18.2-41.2
		c0.2-2.6,28.7-151,29.3-153.5c0.1-1.1,0.3-2.1,0.5-3.2c0.2,8.5,2,16.8,5.3,24.8c3,7.2,7.2,13.8,12.4,19.5
		C175.9,224.9,214.8,272.8,235.4,297.9z"/>
	<path class="st0" d="M359.7,214.1c-5.7,29.8-11.9,62.4-12.9,68.1h0c-0.3,1.9-0.5,3.9-0.6,5.9h-33.1c-0.1-2-0.2-4-0.5-5.9h0
		c-0.9-5.8-7.5-40-13.3-70.4c-4.5-23.2-8.5-44.2-9.4-48.7c-0.9-6.8-2.9-13.4-5.8-19.6c-2.5-5.5-5.8-10.5-9.6-15.1
		c-0.6-0.7-1.2-1.4-1.8-2h113.6c0.3-0.2,0.7-0.5,1-0.7c-4.9,5.2-9,11.2-12,17.8c-2.9,6.2-4.9,12.8-5.8,19.6
		C368.6,167.7,364.3,190,359.7,214.1z"/>
	<path class="st0" d="M516.6,372.2c-15.7,7.3-33.1-0.8-43.3-12.5c-0.9-0.9-25.5-31-50-61c20.4-24.9,60-73.7,65.2-80.1
		c5.2-5.7,9.3-12.3,12.4-19.5c2.6-6.3,4.3-12.9,5-19.5c3.6,18.3,28.7,149.1,28.9,151.5C537.9,347.5,532.3,364.9,516.6,372.2z"/>
	<g>
		<path class="st0" d="M491.8,195.2c-2.7,6.4-6.3,12-10.7,16.8c-0.9,1.2-42.6,52.5-64.1,78.8c-7.2,8.8-12.2,14.9-12.6,15.2
			c-6,7.2-14.4,12-23.2,12c-3.4,0-6.9-0.7-10.3-2.3c-10.8-5-15-16.8-14.6-27.6c0.1-1.5,0.2-2.9,0.4-4.3c0.1-0.9,5.1-27.3,10.4-55
			c5.9-30.8,12.1-63.1,12.4-64.2c0.8-5.7,2.4-11.4,5-16.9c10-21.4,31.1-33.9,53.2-33.9c8.7,0,17.6,2,26,6.1
			C491.3,133.5,503.7,166.8,491.8,195.2z"/>
	</g>
	<g>
		<path class="st0" d="M288.6,315.7c-3.4,1.6-6.9,2.3-10.3,2.3c-8.8,0-17.3-4.8-23.2-12c-0.4-0.4-5.6-6.7-13.2-16
			c-21.7-26.5-62.6-76.8-63.5-78c-4.4-4.8-8-10.4-10.7-16.8c-12-28.4,0.5-61.7,28.1-75.3c8.4-4.1,17.3-6.1,26-6.1
			c22.1,0,43.3,12.5,53.2,33.9c2.6,5.5,4.2,11.2,5,16.9c0.2,1,6.3,32.4,12.1,62.7c5.4,28.2,10.6,55.6,10.7,56.5
			c0.2,1.4,0.4,2.9,0.4,4.3C303.6,298.9,299.3,310.7,288.6,315.7z"/>
	</g>
	<g>
		<g>
			<rect x="215" y="146.8" class="st1" width="16.9" height="54.7"/>
		</g>
		<g>
			<rect x="196.1" y="165.7" class="st1" width="54.7" height="16.9"/>
		</g>
	</g>
	<g>
		<circle class="st1" cx="438.2" cy="147.2" r="11.3"/>
		<circle class="st1" cx="438.2" cy="192.9" r="11.3"/>
		<circle class="st1" cx="461" cy="170.1" r="11.3"/>
		<circle class="st1" cx="415.3" cy="170.1" r="11.3"/>
	</g>
	<circle class="st2" cx="266.7" cy="268.4" r="21.6"/>
	<circle class="st2" cx="391.2" cy="268.4" r="21.6"/>
</g>
<g id="backup">
	<path class="st0" d="M-455,197.8c5.6-6.2,10.3-13.4,13.7-21.6c15.4-36.6-0.6-79.4-36.2-97.1c-38.2-18.9-84.2-2.6-102.1,35.8
		c-3.3,7.1-5.4,14.4-6.4,21.8c-0.6,2.6-29.1,151-29.3,153.5c-2.4,15.3,2.5,33.8,18.2,41.2c15.7,7.3,32.5,0.4,43.2-12.5
		C-552,317.2-456.6,200-455,197.8z"/>
	<path class="st0" d="M-233,136.8c-1.1-8.3-3.7-16.5-7.7-24.4C-258.9,77-302,61.7-338.4,77.7c-39,17.1-56.1,62.9-38.2,101.3
		c3.3,7.1,7.6,13.4,12.5,18.9c1.6,2.1,97,119.3,98.8,121.1c10.2,11.7,27.5,19.8,43.2,12.5c15.7-7.3,21.2-24.6,18.2-41.2
		C-204,287.7-232.4,139.3-233,136.8z"/>
	<rect x="-551.6" y="85.6" class="st0" width="283.2" height="161.7"/>
	<g>
		<path class="st0" d="M-357.4,282.3c-4.3,0-8.5-0.9-12.4-2.8c-14.7-6.9-19.1-23.7-17-37.3l0,0c1.2-7.7,21.2-111.6,22.7-119.2
			c0.9-6.3,2.7-12.4,5.4-18.2c10.4-22.4,33.1-36.8,57.8-36.8c9.8,0,19.3,2.2,28.2,6.6c30.1,14.9,43.5,50.8,30.5,81.8
			c-2.8,6.7-6.7,12.8-11.5,18.1c-4.8,5.9-71,87.4-76.6,93.9l0,0C-337.6,277.3-347.5,282.3-357.4,282.3
			C-357.4,282.3-357.4,282.3-357.4,282.3z"/>
		<path class="st2" d="M-300.9,73c8.7,0,17.6,2,26,6.1c27.6,13.7,40.1,46.9,28.1,75.3c-2.7,6.4-6.3,12-10.7,16.8
			c-1.2,1.6-75.3,92.6-76.7,94c-6,7.2-14.4,12-23.2,12c-3.4,0-6.9-0.7-10.3-2.3c-12.2-5.7-16-20.1-14.1-32
			c0.2-2,22.2-117.2,22.7-119.2c0.8-5.7,2.4-11.4,5-16.9C-344.2,85.6-323.1,73-300.9,73 M-300.9,63c-12.9,0-25.5,3.6-36.5,10.5
			c-11.3,7-20.2,17.1-25.8,29.2c-2.9,6.2-4.9,12.8-5.8,19.6c-2,10.4-21.1,108.8-22.7,119.1l0,0c-2.5,15.5,2.7,34.6,19.8,42.6
			c4.6,2.2,9.5,3.3,14.5,3.3c11.4,0,22.7-5.7,30.9-15.6l0,0c7.5-8.8,69.9-85.6,76.5-93.8c5.2-5.7,9.4-12.3,12.4-19.5
			c6.8-16.1,7.1-34.1,1-50.6c-6.2-16.5-18.2-29.9-33.8-37.6C-280.1,65.5-290.3,63-300.9,63L-300.9,63z"/>
	</g>
	<g>
		<path class="st0" d="M-460.3,282.3c-9.9,0-19.8-5-27.1-13.8l0,0c-5.7-6.5-71.8-88-76.6-93.9c-4.8-5.3-8.7-11.4-11.5-18.1
			c-13-31,0.4-66.9,30.5-81.8c8.9-4.4,18.4-6.6,28.2-6.6c24.7,0,47.4,14.4,57.8,36.8c2.7,5.8,4.5,11.9,5.4,18.2
			c1.5,7.5,21.5,111.5,22.7,119.2l0,0c2.2,13.6-2.2,30.4-17,37.3C-451.9,281.4-456.1,282.3-460.3,282.3z"/>
		<path class="st2" d="M-516.8,73c22.1,0,43.3,12.6,53.3,33.9c2.6,5.5,4.2,11.2,5,16.9c0.5,2,22.6,117.2,22.7,119.2
			c1.9,11.9-1.9,26.3-14.1,32c-3.4,1.6-6.9,2.3-10.3,2.3c-8.8,0-17.3-4.8-23.2-12c-1.4-1.4-75.5-92.4-76.7-94
			c-4.4-4.8-8-10.4-10.7-16.8c-12-28.4,0.5-61.7,28.1-75.3C-534.5,75-525.6,73-516.8,73 M-516.8,63v10V63c-10.6,0-20.9,2.4-30.4,7.1
			c-15.7,7.7-27.7,21.1-33.8,37.6c-6.2,16.5-5.8,34.5,1,50.6c3,7.2,7.2,13.8,12.4,19.5c6.6,8.2,69,85,76.5,93.8l0,0
			c8.2,9.9,19.5,15.6,30.9,15.6c5,0,9.9-1.1,14.5-3.3c17.1-8,22.3-27.1,19.8-42.6l0,0c-1.6-10.3-20.7-108.7-22.7-119.1
			c-0.9-6.8-2.9-13.4-5.8-19.6c-5.6-12.1-14.6-22.2-25.8-29.2C-491.3,66.7-503.9,63-516.8,63L-516.8,63z"/>
	</g>
	<g>
		<g>
			<rect x="-523.6" y="106.1" class="st1" width="16.9" height="54.7"/>
		</g>
		<g>
			<rect x="-542.5" y="125" class="st1" width="54.7" height="16.9"/>
		</g>
	</g>
	<g>
		<circle class="st1" cx="-300.4" cy="106.5" r="11.3"/>
		<circle class="st1" cx="-300.4" cy="152.2" r="11.3"/>
		<circle class="st1" cx="-277.6" cy="129.4" r="11.3"/>
		<circle class="st1" cx="-323.3" cy="129.4" r="11.3"/>
	</g>
	<circle class="st2" cx="-471.9" cy="227.7" r="21.6"/>
	<circle class="st2" cx="-347.5" cy="227.7" r="21.6"/>
</g>
</svg>
