<?xml version="1.0" encoding="utf-8"?>
<!-- Generator: Adobe Illustrator 25.2.0, SVG Export Plug-In . SVG Version: 6.00 Build 0)  -->
<svg version="1.1" id="Layer_1" xmlns="http://www.w3.org/2000/svg" xmlns:xlink="http://www.w3.org/1999/xlink" x="0px" y="0px"
	 viewBox="0 0 412.9 262" style="enable-background:new 0 0 412.9 262;" xml:space="preserve">
<style type="text/css">
	.st0{fill:none;}
	.st1{fill:#FFFFFF;}
</style>
<rect x="183" y="523.9" class="st0" width="238.6" height="28.1"/>
<g>
	<path class="st1" d="M112.6,184.8C88,215,63,245.7,62,246.6c-10.7,12.9-27.5,19.8-43.2,12.5c-15.7-7.3-20.7-25.8-18.2-41.2
		c0.2-2.6,28.7-151,29.3-153.5c0.1-1.1,0.3-2.1,0.5-3.2c0.2,8.5,2,16.8,5.3,24.8c3,7.2,7.2,13.8,12.4,19.5
		C53.1,111.8,92,159.7,112.6,184.8z"/>
	<path class="st1" d="M236.9,101c-5.7,29.8-11.9,62.4-12.9,68.1l0,0c-0.3,1.9-0.5,3.9-0.6,5.9h-33.1c-0.1-2-0.2-4-0.5-5.9l0,0
		c-0.9-5.8-7.5-40-13.3-70.4C172,75.5,168,54.5,167.1,50c-0.9-6.8-2.9-13.4-5.8-19.6c-2.5-5.5-5.8-10.5-9.6-15.1
		c-0.6-0.7-1.2-1.4-1.8-2h113.6c0.3-0.2,0.7-0.5,1-0.7c-4.9,5.2-9,11.2-12,17.8c-2.9,6.2-4.9,12.8-5.8,19.6
		C245.8,54.6,241.5,76.9,236.9,101z"/>
	<path class="st1" d="M393.8,259.1c-15.7,7.3-33.1-0.8-43.3-12.5c-0.9-0.9-25.5-31-50-61c20.4-24.9,60-73.7,65.2-80.1
		c5.2-5.7,9.3-12.3,12.4-19.5c2.6-6.3,4.3-12.9,5-19.5c3.6,18.3,28.7,149.1,28.9,151.5C415.1,234.4,409.5,251.8,393.8,259.1z"/>
	<path class="st1" d="M180.4,175c0-1.4-0.2-2.9-0.4-4.3c-0.1-0.9-5.3-28.3-10.7-56.5c-5.8-30.3-11.9-61.7-12.1-62.7
		c-0.8-5.7-2.4-11.4-5-16.9C142.3,13.2,121.1,0.7,99,0.7c-8.7,0-17.6,2-26,6.1C45.4,20.4,32.9,53.7,44.9,82.1
		c2.7,6.4,6.3,12,10.7,16.8c0.9,1.2,41.8,51.5,63.5,78c7.6,9.3,12.8,15.6,13.2,16c5.9,7.2,14.4,12,23.2,12c3.4,0,6.9-0.7,10.3-2.3
		C176.5,197.6,180.8,185.8,180.4,175z M109.1,69.5v18.9H92.2V69.5H73.3V52.6h18.9V33.7h16.9v18.9H128v16.9H109.1z M143.9,176.9
		c-11.9,0-21.6-9.7-21.6-21.6c0-11.9,9.7-21.6,21.6-21.6c11.9,0,21.6,9.7,21.6,21.6C165.5,167.2,155.8,176.9,143.9,176.9z"/>
	<path class="st1" d="M340.9,6.8c-8.4-4.1-17.3-6.1-26-6.1c-22.1,0-43.2,12.5-53.2,33.9c-2.6,5.5-4.2,11.2-5,16.9
		c-0.3,1.1-6.5,33.4-12.4,64.2c-5.3,27.7-10.3,54.1-10.4,55c-0.2,1.4-0.3,2.8-0.4,4.3c-0.4,10.8,3.8,22.6,14.6,27.6
		c3.4,1.6,6.9,2.3,10.3,2.3c8.8,0,17.2-4.8,23.2-12c0.4-0.3,5.4-6.4,12.6-15.2c21.5-26.3,63.2-77.6,64.1-78.8
		c4.4-4.8,8-10.4,10.7-16.8C380.9,53.7,368.5,20.4,340.9,6.8z M268.4,176.9c-11.9,0-21.6-9.7-21.6-21.6c0-11.9,9.7-21.6,21.6-21.6
		c11.9,0,21.6,9.7,21.6,21.6C290,167.2,280.3,176.9,268.4,176.9z M292.5,68.3c-6.2,0-11.3-5.1-11.3-11.3c0-6.2,5.1-11.3,11.3-11.3
		c6.2,0,11.3,5.1,11.3,11.3C303.8,63.2,298.8,68.3,292.5,68.3z M315.4,91.1c-6.2,0-11.3-5.1-11.3-11.3c0-6.2,5.1-11.3,11.3-11.3
		c6.2,0,11.3,5.1,11.3,11.3C326.7,86,321.7,91.1,315.4,91.1z M315.4,45.4c-6.2,0-11.3-5.1-11.3-11.3c0-6.2,5.1-11.3,11.3-11.3
		c6.2,0,11.3,5.1,11.3,11.3C326.7,40.3,321.7,45.4,315.4,45.4z M338.2,68.3c-6.2,0-11.3-5.1-11.3-11.3c0-6.2,5.1-11.3,11.3-11.3
		c6.2,0,11.3,5.1,11.3,11.3C349.5,63.2,344.5,68.3,338.2,68.3z"/>
</g>
</svg>
