<?xml version="1.0" encoding="utf-8"?>
<!-- Generator: Adobe Illustrator 25.2.0, SVG Export Plug-In . SVG Version: 6.00 Build 0)  -->
<svg version="1.1" id="Layer_1" xmlns="http://www.w3.org/2000/svg" xmlns:xlink="http://www.w3.org/1999/xlink" x="0px" y="0px"
	 viewBox="0 0 412.9 262" style="enable-background:new 0 0 412.9 262;" xml:space="preserve">
<style type="text/css">
	.st0{fill:none;}
	.st1{fill:#000046;}
	.st2{fill:#FF7A12;}
	.st3{fill:#FFFFFF;}
</style>
<rect x="183" y="523.9" class="st0" width="238.6" height="28.1"/>
<g>
	<path class="st1" d="M112.6,184.8C88,215,63,245.7,62,246.6c-10.7,12.9-27.5,19.8-43.2,12.5c-15.7-7.3-20.7-25.8-18.2-41.2
		c0.2-2.6,28.7-151,29.3-153.5c0.1-1.1,0.3-2.1,0.5-3.2c0.2,8.5,2,16.8,5.3,24.8c3,7.2,7.2,13.8,12.4,19.5
		C53.1,111.8,92,159.7,112.6,184.8z"/>
	<path class="st1" d="M236.9,101c-5.7,29.8-11.9,62.4-12.9,68.1l0,0c-0.3,1.9-0.5,3.9-0.6,5.9h-33.1c-0.1-2-0.2-4-0.5-5.9l0,0
		c-0.9-5.8-7.5-40-13.3-70.4C172,75.5,168,54.5,167.1,50c-0.9-6.8-2.9-13.4-5.8-19.6c-2.5-5.5-5.8-10.5-9.6-15.1
		c-0.6-0.7-1.2-1.4-1.8-2h113.6c0.3-0.2,0.7-0.5,1-0.7c-4.9,5.2-9,11.2-12,17.8c-2.9,6.2-4.9,12.8-5.8,19.6
		C245.8,54.6,241.5,76.9,236.9,101z"/>
	<path class="st1" d="M393.8,259.1c-15.7,7.3-33.1-0.8-43.3-12.5c-0.9-0.9-25.5-31-50-61c20.4-24.9,60-73.7,65.2-80.1
		c5.2-5.7,9.3-12.3,12.4-19.5c2.6-6.3,4.3-12.9,5-19.5c3.6,18.3,28.7,149.1,28.9,151.5C415.1,234.4,409.5,251.8,393.8,259.1z"/>
	<g>
		<path class="st1" d="M369,82.1c-2.7,6.4-6.3,12-10.7,16.8c-0.9,1.2-42.6,52.5-64.1,78.8c-7.2,8.8-12.2,14.9-12.6,15.2
			c-6,7.2-14.4,12-23.2,12c-3.4,0-6.9-0.7-10.3-2.3c-10.8-5-15-16.8-14.6-27.6c0.1-1.5,0.2-2.9,0.4-4.3c0.1-0.9,5.1-27.3,10.4-55
			c5.9-30.8,12.1-63.1,12.4-64.2c0.8-5.7,2.4-11.4,5-16.9c10-21.4,31.1-33.9,53.2-33.9c8.7,0,17.6,2,26,6.1
			C368.5,20.4,380.9,53.7,369,82.1z"/>
	</g>
	<g>
		<path class="st1" d="M165.8,202.6c-3.4,1.6-6.9,2.3-10.3,2.3c-8.8,0-17.3-4.8-23.2-12c-0.4-0.4-5.6-6.7-13.2-16
			c-21.7-26.5-62.6-76.8-63.5-78c-4.4-4.8-8-10.4-10.7-16.8C32.9,53.7,45.4,20.4,73,6.8c8.4-4.1,17.3-6.1,26-6.1
			c22.1,0,43.3,12.5,53.2,33.9c2.6,5.5,4.2,11.2,5,16.9c0.2,1,6.3,32.4,12.1,62.7c5.4,28.2,10.6,55.6,10.7,56.5
			c0.2,1.4,0.4,2.9,0.4,4.3C180.8,185.8,176.5,197.6,165.8,202.6z"/>
	</g>
	<g>
		<g>
			<rect x="92.2" y="33.7" class="st2" width="16.9" height="54.7"/>
		</g>
		<g>
			<rect x="73.3" y="52.6" class="st2" width="54.7" height="16.9"/>
		</g>
	</g>
	<g>
		<circle class="st2" cx="315.4" cy="34.1" r="11.3"/>
		<circle class="st2" cx="315.4" cy="79.8" r="11.3"/>
		<circle class="st2" cx="338.2" cy="57" r="11.3"/>
		<circle class="st2" cx="292.5" cy="57" r="11.3"/>
	</g>
	<circle class="st3" cx="143.9" cy="155.3" r="21.6"/>
	<circle class="st3" cx="268.4" cy="155.3" r="21.6"/>
</g>
</svg>
